<mxfile host="app.diagrams.net" modified="2023-06-06T12:25:57.024Z" agent="Mozilla/5.0 (Windows NT 10.0; Win64; x64) AppleWebKit/537.36 (KHTML, like Gecko) Chrome/114.0.0.0 Safari/537.36" etag="YOaNM9E9r3E7wKaQwSAC" version="21.3.7" type="github">
  <diagram name="第 1 页" id="_BOhLUs3ABtCLZPjs1Sp">
    <mxGraphModel dx="1290" dy="541" grid="1" gridSize="10" guides="1" tooltips="1" connect="1" arrows="1" fold="1" page="1" pageScale="1" pageWidth="827" pageHeight="1169" math="0" shadow="0">
      <root>
        <mxCell id="0" />
        <mxCell id="1" parent="0" />
        <mxCell id="YD7yY-gh3Z_F-k1eT-UV-4" style="edgeStyle=orthogonalEdgeStyle;rounded=0;orthogonalLoop=1;jettySize=auto;html=1;exitX=1;exitY=0.5;exitDx=0;exitDy=0;entryX=0;entryY=0.5;entryDx=0;entryDy=0;" edge="1" parent="1" source="YD7yY-gh3Z_F-k1eT-UV-1" target="YD7yY-gh3Z_F-k1eT-UV-2">
          <mxGeometry relative="1" as="geometry" />
        </mxCell>
        <mxCell id="YD7yY-gh3Z_F-k1eT-UV-1" value="" style="ellipse;whiteSpace=wrap;html=1;aspect=fixed;" vertex="1" parent="1">
          <mxGeometry x="80" y="687.5" width="30" height="30" as="geometry" />
        </mxCell>
        <mxCell id="YD7yY-gh3Z_F-k1eT-UV-7" style="edgeStyle=orthogonalEdgeStyle;rounded=0;orthogonalLoop=1;jettySize=auto;html=1;exitX=1;exitY=0.5;exitDx=0;exitDy=0;entryX=0;entryY=0.5;entryDx=0;entryDy=0;" edge="1" parent="1" source="YD7yY-gh3Z_F-k1eT-UV-2" target="YD7yY-gh3Z_F-k1eT-UV-3">
          <mxGeometry relative="1" as="geometry" />
        </mxCell>
        <mxCell id="YD7yY-gh3Z_F-k1eT-UV-2" value="&lt;font style=&quot;font-size: 14px;&quot;&gt;读者用户登录系统&lt;/font&gt;" style="rounded=1;whiteSpace=wrap;html=1;" vertex="1" parent="1">
          <mxGeometry x="160" y="675" width="80" height="55" as="geometry" />
        </mxCell>
        <mxCell id="YD7yY-gh3Z_F-k1eT-UV-9" style="edgeStyle=orthogonalEdgeStyle;rounded=0;orthogonalLoop=1;jettySize=auto;html=1;exitX=1;exitY=0.5;exitDx=0;exitDy=0;entryX=0;entryY=0.5;entryDx=0;entryDy=0;" edge="1" parent="1" source="YD7yY-gh3Z_F-k1eT-UV-3" target="YD7yY-gh3Z_F-k1eT-UV-8">
          <mxGeometry relative="1" as="geometry" />
        </mxCell>
        <mxCell id="YD7yY-gh3Z_F-k1eT-UV-3" value="&lt;font style=&quot;font-size: 14px;&quot;&gt;阅读界面&lt;/font&gt;" style="rounded=1;whiteSpace=wrap;html=1;" vertex="1" parent="1">
          <mxGeometry x="290" y="678.75" width="96.5" height="47.5" as="geometry" />
        </mxCell>
        <mxCell id="YD7yY-gh3Z_F-k1eT-UV-11" style="edgeStyle=orthogonalEdgeStyle;rounded=0;orthogonalLoop=1;jettySize=auto;html=1;exitX=1;exitY=0.5;exitDx=0;exitDy=0;" edge="1" parent="1" source="YD7yY-gh3Z_F-k1eT-UV-8" target="YD7yY-gh3Z_F-k1eT-UV-10">
          <mxGeometry relative="1" as="geometry" />
        </mxCell>
        <mxCell id="YD7yY-gh3Z_F-k1eT-UV-8" value="&lt;font style=&quot;font-size: 14px;&quot;&gt;点击关注&lt;/font&gt;" style="rounded=1;whiteSpace=wrap;html=1;" vertex="1" parent="1">
          <mxGeometry x="430" y="678.75" width="96.5" height="47.5" as="geometry" />
        </mxCell>
        <mxCell id="YD7yY-gh3Z_F-k1eT-UV-13" style="edgeStyle=orthogonalEdgeStyle;rounded=0;orthogonalLoop=1;jettySize=auto;html=1;exitX=1;exitY=0.5;exitDx=0;exitDy=0;entryX=0;entryY=0.5;entryDx=0;entryDy=0;" edge="1" parent="1" source="YD7yY-gh3Z_F-k1eT-UV-10" target="YD7yY-gh3Z_F-k1eT-UV-12">
          <mxGeometry relative="1" as="geometry" />
        </mxCell>
        <mxCell id="YD7yY-gh3Z_F-k1eT-UV-10" value="&lt;font style=&quot;font-size: 14px;&quot;&gt;书籍移至书架&lt;/font&gt;" style="rounded=1;whiteSpace=wrap;html=1;" vertex="1" parent="1">
          <mxGeometry x="570" y="678.75" width="96.5" height="47.5" as="geometry" />
        </mxCell>
        <mxCell id="YD7yY-gh3Z_F-k1eT-UV-12" value="" style="ellipse;html=1;shape=endState;fillColor=strokeColor;" vertex="1" parent="1">
          <mxGeometry x="720" y="687.5" width="30" height="30" as="geometry" />
        </mxCell>
      </root>
    </mxGraphModel>
  </diagram>
</mxfile>
